HIERARCHY
ROOT Hips
{
	OFFSET 0.00000 0.00000 0.00000
	CHANNELS 6 Xposition Yposition Zposition Zrotation Yrotation Xrotation 
	JOINT LHipJoint
	{
		OFFSET 0 0 0
		CHANNELS 3 Zrotation Yrotation Xrotation
		JOINT LeftUpLeg
		{
			OFFSET 1.58895 -1.83665 0.71753
			CHANNELS 3 Zrotation Yrotation Xrotation
			JOINT LeftLeg
			{
				OFFSET 2.50528 -6.88321 0.00000
				CHANNELS 3 Zrotation Yrotation Xrotation
				JOINT LeftFoot
				{
					OFFSET 2.63244 -7.23257 0.00000
					CHANNELS 3 Zrotation Yrotation Xrotation
					JOINT LeftToeBase
					{
						OFFSET 0.23691 -0.65090 1.72750
						CHANNELS 3 Zrotation Yrotation Xrotation
						End Site
						{
							OFFSET 0.00000 -0.00000 0.92561
						}
					}
				}
			}
		}
	}
	JOINT RHipJoint
	{
		OFFSET 0 0 0
		CHANNELS 3 Zrotation Yrotation Xrotation
		JOINT RightUpLeg
		{
			OFFSET -1.51435 -1.83665 0.71753
			CHANNELS 3 Zrotation Yrotation Xrotation
			JOINT RightLeg
			{
				OFFSET -2.54551 -6.99375 0.00000
				CHANNELS 3 Zrotation Yrotation Xrotation
				JOINT RightFoot
				{
					OFFSET -2.66027 -7.30903 0.00000
					CHANNELS 3 Zrotation Yrotation Xrotation
					JOINT RightToeBase
					{
						OFFSET -0.22981 -0.63138 2.03959
						CHANNELS 3 Zrotation Yrotation Xrotation
						End Site
						{
							OFFSET -0.00000 -0.00000 1.07060
						}
					}
				}
			}
		}
	}
	JOINT LowerBack
	{
		OFFSET 0 0 0
		CHANNELS 3 Zrotation Yrotation Xrotation
		JOINT Spine
		{
			OFFSET -0.02651 1.86275 -0.11152
			CHANNELS 3 Zrotation Yrotation Xrotation
			JOINT Spine1
			{
				OFFSET 0.01019 1.86224 0.04087
				CHANNELS 3 Zrotation Yrotation Xrotation
				JOINT Neck
				{
					OFFSET 0 0 0
					CHANNELS 3 Zrotation Yrotation Xrotation
					JOINT Neck1
					{
						OFFSET -0.01926 1.80512 0.08867
						CHANNELS 3 Zrotation Yrotation Xrotation
						JOINT Head
						{
							OFFSET 0.05516 1.76451 -0.38475
							CHANNELS 3 Zrotation Yrotation Xrotation
							End Site
							{
								OFFSET 0.01592 1.82587 -0.14001
							}
						}
					}
				}
				JOINT LeftShoulder
				{
					OFFSET 0 0 0
					CHANNELS 3 Zrotation Yrotation Xrotation
					JOINT LeftArm
					{
						OFFSET 3.47116 1.51376 0.14491
						CHANNELS 3 Zrotation Yrotation Xrotation
						JOINT LeftForeArm
						{
							OFFSET 4.78095 -0.00000 0.00000
							CHANNELS 3 Zrotation Yrotation Xrotation
							JOINT LeftHand
							{
								OFFSET 3.58615 -0.00000 -0.00000
								CHANNELS 3 Zrotation Yrotation Xrotation
								JOINT LeftFingerBase
								{
									OFFSET 0 0 0
									CHANNELS 3 Zrotation Yrotation Xrotation
									JOINT LeftHandIndex1
									{
										OFFSET 0.65981 -0.00000 0.00000
										CHANNELS 3 Zrotation Yrotation Xrotation
										End Site
										{
											OFFSET 0.53196 -0.00000 0.00000
										}
									}
								}
								JOINT LThumb
								{
									OFFSET 0 0 0
									CHANNELS 3 Zrotation Yrotation Xrotation
									End Site
									{
										OFFSET 0.54008 -0.00000 0.54008
									}
								}
							}
						}
					}
				}
				JOINT RightShoulder
				{
					OFFSET 0 0 0
					CHANNELS 3 Zrotation Yrotation Xrotation
					JOINT RightArm
					{
						OFFSET -3.31725 1.61216 0.35156
						CHANNELS 3 Zrotation Yrotation Xrotation
						JOINT RightForeArm
						{
							OFFSET -4.48913 -0.00000 0.00000
							CHANNELS 3 Zrotation Yrotation Xrotation
							JOINT RightHand
							{
								OFFSET -3.70510 -0.00000 0.00000
								CHANNELS 3 Zrotation Yrotation Xrotation
								JOINT RightFingerBase
								{
									OFFSET 0 0 0
									CHANNELS 3 Zrotation Yrotation Xrotation
									JOINT RightHandIndex1
									{
										OFFSET -0.44914 -0.00000 0.00000
										CHANNELS 3 Zrotation Yrotation Xrotation
										End Site
										{
											OFFSET -0.36211 -0.00000 0.00000
										}
									}
								}
								JOINT RThumb
								{
									OFFSET 0 0 0
									CHANNELS 3 Zrotation Yrotation Xrotation
									End Site
									{
										OFFSET -0.36763 -0.00000 0.36763
									}
								}
							}
						}
					}
				}
			}
		}
	}
}
MOTION
Frames: 8
Frame Time: .0083333
-1.0114 18.0873 5.7942 0 0 0 0 0 0 -21 0 0 0 0 0 0 0 0 0 0 0 0 0 0 21 0 0 0 0 0 0 0 0 0 0 0 0 0 0 0 0 0 0 0 0 0 0 -16 0 0 21 0 0 11 0 0 0 -8 0 0 0 0 0 0 0 0 0 0 0 0 0 0 0 0 0 0 0 0 8 0 0 0 0 0 0 0 0 0 0 0 0 0 0 0 0 0
-1.0114 18.0873 5.7942 -5.9763 -4.7679 -0.6575 0.0000 0.0000 0.0000 -10.2923 -1.5931 22.6373 1.1883 -6.9177 -19.4717 -1.3906 20.9772 -13.6346 0.0914 -1.9494 -5.3658 0.0000 0.0000 0.0000 21.8807 -3.2718 9.1354 0.0000 0.0000 -0.0000 -0.7573 -1.9944 -17.2768 -0.2022 -2.8952 7.9871 5.1085 1.8915 2.0153 0.9857 2.6645 -0.3566 -1.9247 1.2942 -1.3115 -0.6132 -2.3763 -11.5865 3.7109 -4.0165 21.0347 0.9164 -1.5689 8.5486 -0.0000 0.0000 0.0000 -90.7262 12.0085 30.8460 22.5292 -33.5700 -6.8762 -0.0000 -0.0000 9.1626 5.7931 -25.0201 -2.4570 -7.1250 0.0000 -0.0000 -14.4433 5.5037 13.4353 -0.0000 0.0000 0.0000 91.0245 -15.9858 26.5366 -23.4170 34.5416 -7.3734 0.0000 0.0000 21.0982 -8.4672 -26.1563 3.7546 7.1250 -0.0000 -0.0000 22.7160 -54.9061 -5.7467
-1.0123 18.0872 5.7943 -5.9905 -4.7916 -0.6539 0.0000 0.0000 0.0000 -10.2668 -1.5531 22.6297 1.1886 -6.9186 -19.4745 -1.3879 20.9603 -13.6318 0.0888 -1.9219 -5.2898 0.0000 0.0000 0.0000 21.9015 -3.2494 9.1383 0.0000 0.0000 -0.0000 -0.7569 -2.0059 -17.2785 -0.1989 -2.8716 7.9214 5.1030 1.8968 2.0049 0.9969 2.6705 -0.3470 -1.9096 1.2978 -1.2962 -0.5956 -2.3787 -11.5684 3.6869 -4.0159 20.9892 0.9056 -1.5706 8.5289 0.0000 0.0000 0.0000 -90.7294 11.9866 30.8486 22.5274 -33.5680 -6.8752 -0.0000 -0.0000 9.1672 5.8423 -24.9880 -2.4750 -7.1250 0.0000 -0.0000 -14.4137 5.5305 13.3983 0.0000 0.0000 0.0000 91.0058 -15.9952 26.5738 -23.4338 34.5598 -7.3829 0.0000 0.0000 21.0712 -8.3485 -26.2441 3.7128 7.1250 -0.0000 -0.0000 22.8872 -54.9642 -5.8266
-1.0126 18.0878 5.7952 -6.0088 -4.8232 -0.6342 0.0000 0.0000 0.0000 -10.2558 -1.5905 22.6360 1.1891 -6.9198 -19.4781 -1.3912 20.9947 -13.6982 0.0889 -1.9229 -5.2927 0.0000 0.0000 0.0000 21.9227 -3.2139 9.1328 0.0000 0.0000 -0.0000 -0.7563 -2.0013 -17.2699 -0.1990 -2.8726 7.9244 5.1355 1.9033 1.9585 0.9953 2.6762 -0.3301 -1.9272 1.3017 -1.2508 -0.5719 -2.3825 -11.5639 3.6608 -4.0181 20.9412 0.8927 -1.5733 8.5108 0.0000 0.0000 0.0000 -90.7244 11.9485 30.8189 22.5515 -33.5947 -6.8885 -0.0000 -0.0000 9.2153 5.9077 -24.9123 -2.4958 -7.1250 0.0000 -0.0000 -14.3741 5.5979 13.3399 0.0000 0.0000 0.0000 91.0060 -15.9609 26.6068 -23.4306 34.5563 -7.3811 0.0000 0.0000 21.0900 -8.3579 -26.3567 3.7318 7.1250 -0.0000 -0.0000 22.9494 -55.0693 -5.9037
-1.0128 18.0878 5.7961 -6.0150 -4.8557 -0.6204 0.0000 0.0000 0.0000 -10.2650 -1.6429 22.6584 1.1897 -6.9216 -19.4833 -1.3995 21.0574 -13.7577 0.0914 -1.9494 -5.3657 0.0000 0.0000 0.0000 21.9315 -3.1770 9.1255 0.0000 0.0000 -0.0000 -0.7512 -2.0081 -17.2180 -0.1998 -2.8785 7.9407 5.1681 1.9044 1.9110 0.9955 2.6745 -0.3079 -1.9428 1.3022 -1.1999 -0.6034 -2.3818 -11.5743 3.6800 -4.0138 20.9136 0.9047 -1.5722 8.5043 -0.0000 0.0000 0.0000 -90.7324 11.8889 30.7955 22.5604 -33.6046 -6.8935 -0.0000 -0.0000 9.2556 5.9283 -24.8479 -2.4985 -7.1250 0.0000 -0.0000 -14.3614 5.6586 13.3103 -0.0000 0.0000 0.0000 91.0105 -15.9008 26.5784 -23.4202 34.5451 -7.3752 0.0000 0.0000 21.1813 -8.2879 -26.4052 3.7065 7.1250 -0.0000 -0.0000 23.0488 -55.1003 -5.9491
-1.0132 18.0873 5.7962 -6.0184 -4.8541 -0.6248 0.0000 0.0000 0.0000 -10.2573 -1.6291 22.6610 1.1903 -6.9232 -19.4879 -1.3998 21.0540 -13.7338 0.0937 -1.9746 -5.4354 0.0000 0.0000 0.0000 21.9377 -3.1793 9.1245 0.0000 0.0000 -0.0000 -0.7498 -2.0202 -17.2089 -0.1965 -2.8549 7.8749 5.1701 1.8923 1.8978 1.0017 2.6571 -0.2960 -1.9364 1.2942 -1.1817 -0.6124 -2.3760 -11.5644 3.6863 -4.0045 20.8952 0.9095 -1.5683 8.4963 0.0000 -0.0000 0.0000 -90.7476 11.8490 30.7605 22.5529 -33.5962 -6.8893 -0.0000 -0.0000 9.3058 5.9627 -24.8110 -2.5096 -7.1250 0.0000 -0.0000 -14.3405 5.6912 13.2804 0.0000 -0.0000 0.0000 90.9983 -15.8707 26.5720 -23.4332 34.5591 -7.3826 0.0000 0.0000 21.1764 -8.1336 -26.3303 3.6272 7.1250 -0.0000 -0.0000 23.1517 -55.0020 -5.9212
-1.0135 18.0871 5.7966 -6.0251 -4.8278 -0.6281 0.0000 0.0000 0.0000 -10.2426 -1.6302 22.6645 1.1915 -6.9266 -19.4981 -1.3966 21.0331 -13.7271 0.0929 -1.9656 -5.4106 0.0000 0.0000 0.0000 21.9442 -3.2084 9.1278 0.0000 -0.0000 0.0000 -0.7556 -2.0020 -17.2620 -0.1950 -2.8436 7.8435 5.1758 1.8757 1.9027 1.0016 2.6354 -0.2958 -1.9394 1.2832 -1.1855 -0.5872 -2.3657 -11.5658 3.6694 -3.9916 20.8938 0.9010 -1.5620 8.4949 0.0000 -0.0000 0.0000 -90.7565 11.8141 30.6801 22.5261 -33.5665 -6.8745 -0.0000 -0.0000 9.3744 5.9364 -24.8563 -2.5027 -7.1250 0.0000 -0.0000 -14.3566 5.6497 13.3080 0.0000 -0.0000 0.0000 90.9742 -15.8555 26.6204 -23.4570 34.5848 -7.3961 0.0000 0.0000 21.1054 -7.9598 -26.2451 3.5383 7.1250 -0.0000 -0.0000 23.2673 -54.8911 -5.8889
-1.0135 18.0868 5.7973 -6.0118 -4.8041 -0.6357 0.0000 0.0000 0.0000 -10.2625 -1.6674 22.6880 1.1923 -6.9289 -19.5049 -1.4006 21.0566 -13.7221 0.0944 -1.9818 -5.4555 0.0000 0.0000 0.0000 21.9270 -3.2334 9.1297 0.0000 0.0000 -0.0000 -0.7597 -1.9778 -17.2953 -0.1998 -2.8785 7.9406 5.1798 1.8705 1.9100 0.9913 2.6289 -0.2958 -1.9523 1.2798 -1.1895 -0.6139 -2.3570 -11.5623 3.7186 -3.9849 20.8950 0.9227 -1.5559 8.4962 -0.0000 -0.0000 0.0000 -90.7543 11.7695 30.6375 22.4926 -33.5293 -6.8560 -0.0000 -0.0000 9.4103 5.8485 -24.9616 -2.4752 -7.1250 0.0000 -0.0000 -14.4098 5.5555 13.3874 -0.0000 -0.0000 0.0000 90.9705 -15.8437 26.6341 -23.4864 34.6164 -7.4128 0.0000 0.0000 21.0696 -7.6930 -26.2649 3.4209 7.1250 -0.0000 -0.0000 23.5397 -54.8584 -5.9446
